<svg width="19" height="18" viewBox="0 0 19 18" fill="none" xmlns="http://www.w3.org/2000/svg">
<path d="M9.36352 8.96089C7.93163 7.529 7.56039 6.83957 7.40129 6.68048C7.2422 6.52138 3.79506 8.16539 3.37079 8.58966L2.52226 9.43818C2.31013 9.65032 2.15103 10.5519 4.96178 13.3626C7.77252 16.1734 8.78016 15.9082 8.88622 15.8021L9.73475 14.9536C9.84082 14.8476 11.75 11.0292 11.6439 10.9231C11.5379 10.817 10.7954 10.3928 9.36352 8.96089Z" fill="#829F65"/>
<path d="M15.0383 9.65068C15.2504 9.43855 15.162 5.42572 15.0383 3.28672C13.1114 3.30439 8.88648 3.07458 8.67434 3.28672L7.29548 4.66557C7.18942 4.77164 6.76515 5.62017 9.735 8.59002C12.7049 11.5599 13.5534 11.1356 13.6594 11.0295L15.0383 9.65068Z" fill="#829F65"/>
</svg>
