<svg width="21" height="16" viewBox="0 0 21 16" fill="none" xmlns="http://www.w3.org/2000/svg">
<path d="M7.20709 10.8558C6.82782 11.4175 6.44855 11.5039 6.19571 11.6335C5.94286 11.7632 6.50006 13.4482 6.40641 13.6643C6.31276 13.8803 5.7743 14.1828 5.60573 14.1828C5.43717 14.1828 5.10004 14.0099 4.76291 13.9235C4.42579 13.8371 3.87796 13.6643 3.62511 13.7939C3.37227 13.9235 2.10804 16.0839 1.68663 15.9975C1.26522 15.9111 -0.0411445 13.0162 0.000996366 12.8866C0.0431372 12.7569 3.87796 10.683 3.96224 10.5534C4.04652 10.4237 3.83581 10.3053 3.83581 10.2077C3.83581 10.1101 4.1308 9.94846 4.21508 9.86205C4.29937 9.77564 3.9201 9.47319 3.96224 9.34356C4.00438 9.21394 5.26861 8.39301 5.31075 8.22018C5.35289 8.04735 5.0579 7.7449 5.01576 7.7449C4.97362 7.74489 4.8472 7.87452 4.55221 8.13376C4.25722 8.393 4.17294 8.39301 4.00438 8.43621C3.83582 8.47942 3.54083 8.78187 3.33012 8.9547C3.11942 9.12753 2.44517 9.51639 2.2766 9.51639C2.10804 9.51639 1.56021 8.69546 1.56021 8.52263C1.56021 8.3498 2.2766 8.00414 2.44517 7.87452C2.61373 7.7449 3.33013 7.61528 3.54083 7.52886C3.75153 7.44245 4.93148 6.62151 5.10004 6.5783C5.26861 6.53509 5.42312 6.53509 5.47931 6.44868C5.5355 6.36227 5.15623 5.9734 5.18432 5.80057C5.21242 5.62774 6.06928 5.10925 6.19571 5.19567C6.32213 5.28209 6.49069 5.71416 6.65926 5.62774C6.82782 5.54133 6.82782 5.49812 6.99638 5.41171C7.16495 5.32529 7.29137 5.3685 7.41779 5.3685C7.54421 5.3685 8.5546 4.1911 8.72316 4.06148C8.89172 3.93186 9.52483 3.51059 9.86196 3.597C10.1991 3.68342 10.6205 5.02284 10.5362 5.28209C10.4519 5.54133 9.46098 5.84372 9.27099 5.87618C9.081 5.90865 8.21747 5.95179 8.00677 6.0058C7.79606 6.05982 7.6275 6.09222 8.00677 6.48108C8.38603 6.86995 8.5546 7.01037 8.63988 7.01037C8.72516 7.01037 9.52483 6.5783 10.3255 6.10302C11.1262 5.62774 11.7573 5.18487 11.968 5.09845C12.1366 5.02932 12.264 5.15246 12.3061 5.15246C12.3483 5.15246 17.1186 2.11068 17.8266 1.69589C18.7115 1.1774 20.4393 0.054009 20.5657 0.0108018C20.6922 -0.0324054 20.8607 0.054009 20.945 0.270045C21.0293 0.486081 21.0283 0.5953 20.8597 0.691316C20.6912 0.787331 18.3734 2.19178 17.657 2.59243C16.9406 2.99308 13.268 5.34802 13.2332 5.45491C13.1985 5.5618 13.4322 5.78659 13.4018 5.9734C13.3714 6.1602 12.7275 6.45948 12.1376 6.83754C11.5476 7.21561 10.6626 7.65848 9.98838 8.22017C9.31413 8.78187 9.14557 9.08432 8.59774 9.73243C8.0499 10.3805 7.58636 10.2941 7.20709 10.8558Z" fill="#829F65"/>
</svg>
