<svg width="17" height="14" viewBox="0 0 17 14" fill="none" xmlns="http://www.w3.org/2000/svg">
<path d="M13.581 0H1.54515L0 2.3942H11.6293C12.0223 2.44831 12.8085 2.84058 12.8085 3.97681C12.8085 5.3971 11.8732 6.57391 10.2468 7.42609C8.62029 8.27826 7.31912 8.4 7.15647 8.4C7.02635 8.4 8.24078 5.343 8.86426 3.81449H5.2047L1.66713 13.9594L5.2047 14C5.2047 14 6.36759 10.4858 6.42456 10.429C6.48152 10.3721 9.92147 9.94203 12.8085 8.4C15.6954 6.85797 17.0779 5.27536 16.9966 2.8C16.9316 0.81971 14.6924 0.108213 13.581 0Z" fill="#828282"/>
</svg>
