<svg width="16" height="16" viewBox="0 0 16 16" fill="none" xmlns="http://www.w3.org/2000/svg">
<path d="M2.82402 12.1695H4.02502V12.687H2.04152V12.1695L3.03802 11.29C3.12702 11.2095 3.19302 11.131 3.23552 11.054C3.27802 10.977 3.29952 10.8975 3.29952 10.8145C3.29952 10.6865 3.25602 10.5835 3.16952 10.5055C3.08402 10.4275 2.97002 10.3885 2.82752 10.3885C2.71802 10.3885 2.59802 10.4125 2.46752 10.46C2.33702 10.5065 2.19752 10.576 2.04902 10.6685V10.069C2.20752 10.0165 2.36402 9.977 2.51902 9.95C2.67402 9.922 2.82552 9.908 2.97402 9.908C3.30052 9.908 3.55402 9.98 3.73452 10.1235C3.91602 10.2675 4.00702 10.468 4.00702 10.725C4.00702 10.8735 3.96852 11.0125 3.89202 11.142C3.81502 11.27 3.65402 11.442 3.40752 11.6575L2.82452 12.1695H2.82402ZM13.7245 13.196C13.9085 13.2435 14.048 13.3265 14.143 13.4445C14.2395 13.5615 14.2875 13.711 14.2875 13.8925C14.2875 14.163 14.184 14.369 13.9765 14.5105C13.7695 14.6505 13.467 14.7205 13.07 14.7205C12.93 14.7205 12.789 14.709 12.6475 14.686C12.5075 14.664 12.3685 14.6305 12.2305 14.5855V14.0425C12.362 14.1085 12.4925 14.1585 12.6215 14.1925C12.752 14.2255 12.88 14.242 13.0055 14.242C13.192 14.242 13.3345 14.2095 13.4335 14.145C13.5335 14.0805 13.5835 13.988 13.5835 13.867C13.5835 13.7425 13.5325 13.649 13.43 13.5855C13.329 13.521 13.179 13.4885 12.9805 13.4885H12.699V13.035H12.995C13.1715 13.035 13.3035 13.0075 13.39 12.9525C13.4765 12.8965 13.52 12.8115 13.52 12.6985C13.52 12.5935 13.478 12.5125 13.394 12.4555C13.31 12.3985 13.191 12.3695 13.0375 12.3695C12.924 12.3695 12.8095 12.3825 12.694 12.408C12.5785 12.4335 12.463 12.4715 12.3485 12.5215V12.006C12.4875 11.967 12.625 11.9375 12.7615 11.9185C12.898 11.8995 13.032 11.8895 13.1635 11.889C13.518 11.889 13.783 11.9475 13.9585 12.0645C14.135 12.1805 14.2235 12.355 14.2235 12.589C14.2235 12.7485 14.1815 12.8795 14.0975 12.982C14.0135 13.083 13.889 13.1545 13.7245 13.196ZM7.36502 7.1985H7.98652V5.4345L7.34852 5.566V5.087L7.98302 4.9555H8.65202V7.1985H9.27352V7.685H7.36502V7.1985ZM15.4745 15.4745V10.982H10.982V3.9935H5.49102V8.9855H0.499023V15.475L15.4745 15.4745Z" fill="white"/>
</svg>
